<svg id="svg" version="1.1" xmlns="http://www.w3.org/2000/svg" xmlns:xlink="http://www.w3.org/1999/xlink" width="400" height="400" viewBox="0, 0, 400,400"><g id="svgg"><path id="path0" d="M229.051 1.172 C 223.707 4.220,221.711 7.191,220.436 14.000 C 220.209 15.210,219.833 17.190,219.600 18.400 C 219.367 19.610,219.012 21.500,218.812 22.600 C 218.215 25.882,217.557 29.297,217.194 31.000 C 217.007 31.880,216.647 33.770,216.394 35.200 C 216.141 36.630,215.778 38.610,215.587 39.600 C 215.395 40.590,215.035 42.480,214.787 43.800 C 214.538 45.120,214.182 46.920,213.994 47.800 C 213.807 48.680,213.447 50.570,213.194 52.000 C 212.941 53.430,212.578 55.410,212.387 56.400 C 212.195 57.390,211.832 59.280,211.581 60.600 C 211.155 62.834,210.725 65.044,210.202 67.700 L 209.985 68.800 200.938 68.800 C 195.963 68.800,190.701 68.988,189.246 69.217 C 181.148 70.494,181.127 70.498,176.000 71.825 C 172.225 72.801,169.398 73.757,163.541 76.038 C 144.166 83.580,123.580 104.166,116.038 123.541 C 113.757 129.398,112.801 132.225,111.825 136.000 C 110.498 141.127,110.494 141.148,109.217 149.246 C 108.988 150.701,108.800 152.912,108.800 154.159 C 108.800 155.622,108.623 156.480,108.300 156.581 C 108.025 156.666,106.540 157.124,105.000 157.597 C 93.504 161.134,92.594 181.622,103.714 186.545 C 106.155 187.626,106.610 187.744,109.173 187.972 C 112.328 188.252,112.247 188.056,112.832 196.800 C 113.224 202.668,113.426 205.553,114.393 219.100 C 114.617 222.235,114.982 227.365,115.205 230.500 C 115.428 233.635,115.795 238.720,116.019 241.800 C 117.661 264.301,118.454 275.282,119.198 285.800 C 119.400 288.660,119.756 293.610,119.988 296.800 C 120.501 303.835,121.054 311.505,121.589 319.000 C 122.046 325.393,122.652 333.793,123.214 341.500 C 124.110 353.804,124.415 358.111,124.780 363.600 C 125.295 371.363,125.776 375.000,126.605 377.400 C 130.860 389.727,139.224 396.712,152.000 398.610 C 157.523 399.431,243.149 399.443,248.800 398.624 C 261.542 396.778,269.925 389.770,274.191 377.400 C 275.055 374.892,275.535 371.389,276.027 364.000 C 276.239 360.810,276.590 355.725,276.806 352.700 C 277.023 349.675,277.380 344.680,277.600 341.600 C 277.820 338.520,278.188 333.435,278.417 330.300 C 278.647 327.165,278.999 322.260,279.200 319.400 C 279.401 316.540,279.753 311.635,279.983 308.500 C 280.212 305.365,280.577 300.325,280.792 297.300 C 281.008 294.275,281.372 289.280,281.600 286.200 C 281.828 283.120,282.194 278.080,282.413 275.000 C 282.632 271.920,282.988 266.925,283.205 263.900 C 283.422 260.875,283.780 255.880,284.000 252.800 C 284.220 249.720,284.588 244.635,284.817 241.500 C 285.047 238.365,285.399 233.460,285.600 230.600 C 285.801 227.740,286.157 222.790,286.390 219.600 C 286.810 213.851,287.143 209.173,287.985 197.200 C 288.225 193.790,288.558 190.370,288.726 189.600 L 289.030 188.200 291.815 187.973 C 307.054 186.731,310.321 162.019,295.830 157.605 C 294.274 157.131,292.775 156.672,292.500 156.584 C 292.171 156.479,292.000 155.576,292.000 153.937 C 292.000 152.568,291.828 150.447,291.617 149.224 C 291.406 148.001,291.030 145.740,290.780 144.200 C 289.942 139.032,288.390 133.319,286.000 126.600 C 279.390 108.022,262.610 88.895,244.945 79.806 C 240.371 77.452,240.611 77.925,241.570 73.149 C 242.371 69.158,242.692 67.501,243.632 62.500 C 243.870 61.235,244.218 59.480,244.406 58.600 C 244.593 57.720,244.951 55.830,245.200 54.400 C 245.449 52.970,245.809 51.080,246.000 50.200 C 246.191 49.320,246.551 47.430,246.800 46.000 C 247.049 44.570,247.407 42.680,247.594 41.800 C 248.124 39.312,248.973 34.923,250.012 29.300 C 251.088 23.479,251.288 22.480,251.677 21.000 C 254.132 11.660,247.741 0.800,239.790 0.800 C 239.052 0.800,238.336 0.620,238.200 0.400 C 237.613 -0.549,231.106 -0.001,229.051 1.172 M207.851 77.001 C 208.309 77.139,208.270 77.815,207.599 81.400 C 206.992 84.636,206.501 87.246,206.036 89.700 C 205.796 90.965,205.405 93.035,205.168 94.300 C 204.930 95.565,204.582 97.320,204.394 98.200 C 204.207 99.080,203.849 100.970,203.600 102.400 C 203.351 103.830,202.991 105.720,202.800 106.600 C 202.609 107.480,202.249 109.370,202.000 110.800 C 201.751 112.230,201.389 114.120,201.197 115.000 C 201.005 115.880,200.465 118.670,199.996 121.200 C 199.190 125.557,198.898 127.098,197.989 131.800 C 196.759 138.166,195.941 142.482,195.563 144.600 C 194.970 147.924,194.397 150.738,193.965 152.446 C 193.764 153.242,193.600 154.331,193.600 154.866 C 193.600 156.874,195.085 156.800,154.720 156.800 L 116.800 156.800 116.800 153.524 C 116.800 147.396,119.109 137.258,122.385 129.000 C 131.962 104.862,155.176 85.079,181.200 78.878 C 182.190 78.642,183.450 78.339,184.000 78.204 C 189.425 76.873,204.856 76.094,207.851 77.001 M248.000 91.726 C 264.445 102.721,276.138 118.934,281.517 138.200 C 282.259 140.861,282.632 142.573,283.560 147.600 C 283.903 149.461,284.189 154.599,284.043 156.300 C 283.988 156.935,226.197 157.043,225.805 156.408 C 225.672 156.193,225.742 155.338,225.962 154.508 C 226.181 153.679,226.743 150.930,227.210 148.400 C 227.678 145.870,228.218 142.990,228.411 142.000 C 228.604 141.010,228.965 139.120,229.213 137.800 C 229.462 136.480,229.818 134.680,230.006 133.800 C 230.193 132.920,230.553 131.030,230.806 129.600 C 231.406 126.206,232.152 122.274,233.160 117.200 C 233.618 114.897,234.937 108.021,235.577 104.600 C 236.424 100.080,236.883 97.716,237.209 96.200 C 237.567 94.532,237.803 93.248,238.410 89.658 C 239.059 85.815,239.206 85.847,248.000 91.726 M293.542 165.431 C 297.823 167.567,298.268 175.925,294.263 178.979 L 292.924 180.000 200.400 180.000 L 107.876 180.000 106.537 178.979 C 102.732 176.077,102.869 168.344,106.772 165.784 L 108.200 164.847 200.239 164.824 C 283.283 164.802,292.401 164.862,293.542 165.431 M280.000 189.831 C 280.000 190.618,279.829 193.363,279.619 195.931 C 279.410 198.499,279.045 203.480,278.809 207.000 C 278.573 210.520,278.207 215.830,277.996 218.800 C 277.785 221.770,277.429 226.900,277.206 230.200 C 276.982 233.500,276.621 238.720,276.403 241.800 C 275.842 249.713,275.292 257.598,274.800 264.800 C 274.567 268.210,274.204 273.430,273.994 276.400 C 273.784 279.370,273.429 284.500,273.206 287.800 C 272.982 291.100,272.621 296.320,272.403 299.400 C 271.842 307.313,271.292 315.198,270.800 322.400 C 270.567 325.810,270.204 331.030,269.994 334.000 C 269.784 336.970,269.428 342.100,269.204 345.400 C 267.638 368.424,267.242 373.045,266.728 374.326 C 264.138 380.779,258.843 386.726,253.600 389.072 C 250.082 390.646,251.672 390.600,200.600 390.600 L 151.400 390.600 148.800 389.646 C 138.662 385.925,133.859 377.739,132.814 362.400 C 132.597 359.210,132.230 353.990,132.000 350.800 C 131.770 347.610,131.400 342.300,131.180 339.000 C 130.959 335.700,130.599 330.480,130.380 327.400 C 130.161 324.320,129.809 319.280,129.597 316.200 C 129.386 313.120,129.035 307.990,128.816 304.800 C 128.597 301.610,128.230 296.390,128.000 293.200 C 127.769 290.010,127.400 284.700,127.180 281.400 C 126.959 278.100,126.599 272.880,126.380 269.800 C 126.161 266.720,125.803 261.590,125.584 258.400 C 125.365 255.210,125.014 250.080,124.803 247.000 C 124.591 243.920,124.230 238.790,124.000 235.600 C 123.769 232.410,123.400 227.100,123.180 223.800 C 122.959 220.500,122.599 215.280,122.380 212.200 C 122.161 209.120,121.810 204.080,121.601 201.000 C 121.392 197.920,121.100 193.825,120.952 191.900 L 120.682 188.400 200.341 188.400 L 280.000 188.400 280.000 189.831 M178.685 283.213 C 165.881 286.433,161.654 302.745,171.264 311.843 C 178.759 318.939,187.546 319.024,195.200 312.077 C 208.413 300.083,196.234 278.798,178.685 283.213 M230.789 318.967 C 217.551 321.875,213.016 340.147,223.365 348.882 C 238.300 361.487,260.281 342.634,249.250 326.681 C 244.500 319.813,238.451 317.285,230.789 318.967 M168.200 341.364 C 148.607 345.326,150.305 374.044,170.216 375.472 C 182.196 376.331,192.295 364.324,188.394 353.859 C 185.503 346.104,181.303 342.284,174.523 341.242 C 171.197 340.731,171.343 340.728,168.200 341.364 " stroke="none" fill="#070606" fill-rule="evenodd"></path><path id="path1" d="M0.000 200.000 L 0.000 400.000 200.000 400.000 L 400.000 400.000 400.000 200.000 L 400.000 0.000 319.900 0.026 C 249.056 0.050,240.050 0.120,241.964 0.634 C 246.516 1.858,250.428 5.625,251.835 10.140 C 253.370 15.065,253.324 15.433,247.225 47.186 C 244.121 63.349,241.661 76.781,241.759 77.037 C 241.857 77.292,243.478 78.321,245.361 79.323 C 271.514 93.235,289.425 120.676,292.428 151.430 L 292.899 156.260 295.184 156.732 C 310.994 159.998,308.056 187.396,291.756 188.704 C 290.270 188.824,289.199 189.096,289.198 189.355 C 289.196 189.785,287.097 219.048,280.387 312.200 C 278.628 336.620,276.926 360.257,276.606 364.727 C 275.966 373.664,275.352 376.797,273.417 381.000 C 268.647 391.362,261.093 397.184,249.827 399.180 C 245.814 399.890,154.031 399.749,150.335 399.026 C 138.605 396.733,130.198 389.546,126.372 378.543 C 124.991 374.572,124.838 373.091,122.579 341.800 C 121.372 325.080,118.952 291.510,117.202 267.200 C 115.451 242.890,113.475 215.535,112.810 206.410 C 112.144 197.286,111.600 189.616,111.600 189.365 C 111.600 189.093,110.570 188.827,109.044 188.704 C 92.758 187.397,89.818 159.995,105.613 156.733 L 107.919 156.257 108.185 153.228 C 112.625 102.684,153.559 66.282,203.900 68.110 C 207.232 68.231,209.600 68.165,209.600 67.951 C 209.600 66.739,220.535 10.295,221.035 8.925 C 222.269 5.547,224.915 2.662,228.600 0.678 C 229.707 0.082,220.902 0.031,114.900 0.016 L 0.000 0.000 0.000 200.000 M191.330 77.638 C 152.283 82.188,120.529 114.340,117.393 152.500 L 117.105 156.000 154.761 156.000 L 192.417 156.000 192.787 155.100 C 193.812 152.608,207.628 77.864,207.123 77.544 C 206.463 77.125,195.153 77.193,191.330 77.638 M239.392 88.116 C 238.552 91.573,226.520 155.463,226.664 155.700 C 226.765 155.865,239.617 156.000,255.224 156.000 L 283.600 156.000 283.600 154.351 C 283.600 140.168,275.579 120.426,264.391 107.072 C 257.357 98.677,240.021 85.531,239.392 88.116 M106.431 167.231 C 103.930 169.732,104.775 177.197,107.737 178.779 L 109.276 179.600 200.400 179.600 L 291.524 179.600 293.063 178.779 C 295.180 177.649,295.600 176.518,295.600 171.941 L 295.600 168.041 294.262 167.020 L 292.924 166.000 200.293 166.000 L 107.662 166.000 106.431 167.231 " stroke="none" fill="#fbfbfb" fill-rule="evenodd"></path><path id="path2" d="M189.900 68.682 C 190.395 68.778,191.205 68.778,191.700 68.682 C 192.195 68.587,191.790 68.509,190.800 68.509 C 189.810 68.509,189.405 68.587,189.900 68.682 M197.900 77.097 C 199.495 77.173,202.105 77.173,203.700 77.097 C 205.295 77.021,203.990 76.959,200.800 76.959 C 197.610 76.959,196.305 77.021,197.900 77.097 M134.591 94.900 L 131.400 98.200 134.700 95.009 C 137.765 92.046,138.182 91.600,137.891 91.600 C 137.830 91.600,136.345 93.085,134.591 94.900 M265.800 94.800 C 267.550 96.560,269.071 98.000,269.181 98.000 C 269.291 98.000,267.950 96.560,266.200 94.800 C 264.450 93.040,262.929 91.600,262.819 91.600 C 262.709 91.600,264.050 93.040,265.800 94.800 M255.600 98.125 C 255.600 98.194,256.185 98.779,256.900 99.425 L 258.200 100.600 257.025 99.300 C 255.930 98.088,255.600 97.816,255.600 98.125 M136.975 106.100 L 135.800 107.400 137.100 106.225 C 137.815 105.579,138.400 104.994,138.400 104.925 C 138.400 104.616,138.070 104.888,136.975 106.100 M108.509 150.800 C 108.509 151.790,108.587 152.195,108.682 151.700 C 108.778 151.205,108.778 150.395,108.682 149.900 C 108.587 149.405,108.509 149.810,108.509 150.800 M292.101 150.600 C 292.105 151.480,292.187 151.793,292.283 151.295 C 292.379 150.798,292.375 150.078,292.275 149.695 C 292.175 149.313,292.096 149.720,292.101 150.600 M116.901 154.200 C 116.905 155.080,116.987 155.393,117.083 154.895 C 117.179 154.398,117.175 153.678,117.075 153.295 C 116.975 152.913,116.896 153.320,116.901 154.200 M283.709 154.400 C 283.709 155.390,283.787 155.795,283.882 155.300 C 283.978 154.805,283.978 153.995,283.882 153.500 C 283.787 153.005,283.709 153.410,283.709 154.400 M154.100 165.900 C 179.565 165.957,221.235 165.957,246.700 165.900 C 272.165 165.843,251.330 165.797,200.400 165.797 C 149.470 165.797,128.635 165.843,154.100 165.900 M105.969 167.169 C 104.582 168.557,104.176 175.422,105.387 177.024 C 105.710 177.451,105.980 177.586,105.987 177.324 C 105.994 177.062,105.820 176.736,105.600 176.600 C 104.492 175.915,105.148 168.514,106.431 167.231 C 107.108 166.554,107.544 166.000,107.400 166.000 C 107.256 166.000,106.612 166.526,105.969 167.169 M293.200 166.111 C 293.200 166.187,293.785 166.678,294.500 167.201 C 295.304 167.790,295.584 167.887,295.233 167.455 C 294.700 166.799,293.200 165.807,293.200 166.111 M295.684 172.220 C 295.633 174.674,295.416 176.424,295.127 176.713 C 294.866 176.974,294.762 177.295,294.894 177.428 C 295.563 178.096,296.018 175.680,295.898 172.099 L 295.767 168.200 295.684 172.220 M95.328 172.400 C 95.328 173.830,95.401 174.415,95.489 173.700 C 95.578 172.985,95.578 171.815,95.489 171.100 C 95.401 170.385,95.328 170.970,95.328 172.400 M305.328 172.400 C 305.328 173.830,305.401 174.415,305.489 173.700 C 305.578 172.985,305.578 171.815,305.489 171.100 C 305.401 170.385,305.328 170.970,305.328 172.400 M111.709 190.800 C 111.709 191.790,111.787 192.195,111.882 191.700 C 111.978 191.205,111.978 190.395,111.882 189.900 C 111.787 189.405,111.709 189.810,111.709 190.800 M121.363 189.540 C 121.479 189.727,121.775 192.922,122.022 196.640 C 123.003 211.423,123.373 216.856,124.407 231.600 C 124.631 234.790,124.983 239.920,125.189 243.000 C 125.395 246.080,125.761 251.300,126.002 254.600 C 126.242 257.900,126.604 263.030,126.805 266.000 C 127.241 272.437,127.849 281.236,128.407 289.200 C 128.631 292.390,128.983 297.520,129.189 300.600 C 129.395 303.680,129.761 308.900,130.002 312.200 C 130.242 315.500,130.604 320.630,130.805 323.600 C 131.222 329.756,131.815 338.352,132.406 346.800 C 132.630 349.990,132.981 355.210,133.187 358.400 C 133.887 369.212,134.175 371.422,135.302 374.600 C 137.839 381.756,143.521 387.404,150.360 389.569 C 153.062 390.425,248.635 390.145,251.277 389.274 C 257.193 387.322,263.719 380.909,265.809 374.994 C 266.657 372.592,266.765 371.338,269.194 335.600 C 269.396 332.630,269.758 327.500,269.998 324.200 C 270.239 320.900,270.605 315.680,270.811 312.600 C 271.017 309.520,271.369 304.390,271.593 301.200 C 272.151 293.236,272.759 284.437,273.195 278.000 C 273.396 275.030,273.758 269.900,273.998 266.600 C 274.239 263.300,274.604 258.080,274.810 255.000 C 275.015 251.920,275.375 246.700,275.608 243.400 C 275.842 240.100,276.199 234.970,276.402 232.000 C 277.212 220.144,277.614 214.351,277.998 209.000 C 278.219 205.920,278.574 200.506,278.786 196.970 C 278.998 193.433,279.287 190.238,279.429 189.870 C 279.668 189.245,274.386 189.200,200.419 189.200 C 156.823 189.200,121.247 189.353,121.363 189.540 M288.909 190.800 C 288.909 191.790,288.987 192.195,289.082 191.700 C 289.178 191.205,289.178 190.395,289.082 189.900 C 288.987 189.405,288.909 189.810,288.909 190.800 M112.093 196.800 C 112.093 197.570,112.175 197.885,112.276 197.500 C 112.376 197.115,112.376 196.485,112.276 196.100 C 112.175 195.715,112.093 196.030,112.093 196.800 M112.528 201.200 C 112.528 202.630,112.601 203.215,112.689 202.500 C 112.778 201.785,112.778 200.615,112.689 199.900 C 112.601 199.185,112.528 199.770,112.528 201.200 M288.124 201.400 C 288.126 202.720,288.201 203.212,288.290 202.493 C 288.379 201.774,288.377 200.694,288.286 200.093 C 288.195 199.492,288.122 200.080,288.124 201.400 M112.901 207.800 C 112.905 208.680,112.987 208.993,113.083 208.495 C 113.179 207.998,113.175 207.278,113.075 206.895 C 112.975 206.513,112.896 206.920,112.901 207.800 M113.331 212.200 C 113.333 213.740,113.405 214.321,113.492 213.491 C 113.579 212.661,113.577 211.401,113.489 210.691 C 113.400 209.981,113.329 210.660,113.331 212.200 M287.324 212.600 C 287.326 213.920,287.401 214.412,287.490 213.693 C 287.579 212.974,287.577 211.894,287.486 211.293 C 287.395 210.692,287.322 211.280,287.324 212.600 M113.701 219.000 C 113.705 219.880,113.787 220.193,113.883 219.695 C 113.979 219.198,113.975 218.478,113.875 218.095 C 113.775 217.713,113.696 218.120,113.701 219.000 M114.124 223.000 C 114.126 224.320,114.201 224.812,114.290 224.093 C 114.379 223.374,114.377 222.294,114.286 221.693 C 114.195 221.092,114.122 221.680,114.124 223.000 M286.524 223.800 C 286.526 225.120,286.601 225.612,286.690 224.893 C 286.779 224.174,286.777 223.094,286.686 222.493 C 286.595 221.892,286.522 222.480,286.524 223.800 M286.093 230.400 C 286.093 231.170,286.175 231.485,286.276 231.100 C 286.376 230.715,286.376 230.085,286.276 229.700 C 286.175 229.315,286.093 229.630,286.093 230.400 M114.924 234.200 C 114.926 235.520,115.001 236.012,115.090 235.293 C 115.179 234.574,115.177 233.494,115.086 232.893 C 114.995 232.292,114.922 232.880,114.924 234.200 M285.728 234.800 C 285.728 236.230,285.801 236.815,285.889 236.100 C 285.978 235.385,285.978 234.215,285.889 233.500 C 285.801 232.785,285.728 233.370,285.728 234.800 M285.293 241.600 C 285.293 242.370,285.375 242.685,285.476 242.300 C 285.576 241.915,285.576 241.285,285.476 240.900 C 285.375 240.515,285.293 240.830,285.293 241.600 M115.724 245.400 C 115.726 246.720,115.801 247.212,115.890 246.493 C 115.979 245.774,115.977 244.694,115.886 244.093 C 115.795 243.492,115.722 244.080,115.724 245.400 M284.928 246.000 C 284.928 247.430,285.001 248.015,285.089 247.300 C 285.178 246.585,285.178 245.415,285.089 244.700 C 285.001 243.985,284.928 244.570,284.928 246.000 M284.501 252.600 C 284.505 253.480,284.587 253.793,284.683 253.295 C 284.779 252.798,284.775 252.078,284.675 251.695 C 284.575 251.313,284.496 251.720,284.501 252.600 M116.524 256.600 C 116.526 257.920,116.601 258.412,116.690 257.693 C 116.779 256.974,116.777 255.894,116.686 255.293 C 116.595 254.692,116.522 255.280,116.524 256.600 M284.131 257.000 C 284.133 258.540,284.205 259.121,284.292 258.291 C 284.379 257.461,284.377 256.201,284.289 255.491 C 284.200 254.781,284.129 255.460,284.131 257.000 M283.701 263.800 C 283.705 264.680,283.787 264.993,283.883 264.495 C 283.979 263.998,283.975 263.278,283.875 262.895 C 283.775 262.513,283.696 262.920,283.701 263.800 M117.324 267.800 C 117.326 269.120,117.401 269.612,117.490 268.893 C 117.579 268.174,117.577 267.094,117.486 266.493 C 117.395 265.892,117.322 266.480,117.324 267.800 M283.324 267.800 C 283.326 269.120,283.401 269.612,283.490 268.893 C 283.579 268.174,283.577 267.094,283.486 266.493 C 283.395 265.892,283.322 266.480,283.324 267.800 M117.693 274.400 C 117.693 275.170,117.775 275.485,117.876 275.100 C 117.976 274.715,117.976 274.085,117.876 273.700 C 117.775 273.315,117.693 273.630,117.693 274.400 M118.128 278.800 C 118.128 280.230,118.201 280.815,118.289 280.100 C 118.378 279.385,118.378 278.215,118.289 277.500 C 118.201 276.785,118.128 277.370,118.128 278.800 M282.524 279.000 C 282.526 280.320,282.601 280.812,282.690 280.093 C 282.779 279.374,282.777 278.294,282.686 277.693 C 282.595 277.092,282.522 277.680,282.524 279.000 M188.782 282.825 C 205.884 288.440,205.369 311.467,188.014 317.164 C 175.767 321.185,162.672 308.486,165.759 295.583 C 168.140 285.630,178.998 279.613,188.782 282.825 M118.493 285.600 C 118.493 286.370,118.575 286.685,118.676 286.300 C 118.776 285.915,118.776 285.285,118.676 284.900 C 118.575 284.515,118.493 284.830,118.493 285.600 M118.928 290.000 C 118.928 291.430,119.001 292.015,119.089 291.300 C 119.178 290.585,119.178 289.415,119.089 288.700 C 119.001 287.985,118.928 288.570,118.928 290.000 M281.724 290.200 C 281.726 291.520,281.801 292.012,281.890 291.293 C 281.979 290.574,281.977 289.494,281.886 288.893 C 281.795 288.292,281.722 288.880,281.724 290.200 M119.301 296.600 C 119.305 297.480,119.387 297.793,119.483 297.295 C 119.579 296.798,119.575 296.078,119.475 295.695 C 119.375 295.313,119.296 295.720,119.301 296.600 M119.731 301.000 C 119.733 302.540,119.805 303.121,119.892 302.291 C 119.979 301.461,119.977 300.201,119.889 299.491 C 119.800 298.781,119.729 299.460,119.731 301.000 M280.924 301.400 C 280.926 302.720,281.001 303.212,281.090 302.493 C 281.179 301.774,281.177 300.694,281.086 300.093 C 280.995 299.492,280.922 300.080,280.924 301.400 M120.101 307.800 C 120.105 308.680,120.187 308.993,120.283 308.495 C 120.379 307.998,120.375 307.278,120.275 306.895 C 120.175 306.513,120.096 306.920,120.101 307.800 M120.524 311.800 C 120.526 313.120,120.601 313.612,120.690 312.893 C 120.779 312.174,120.777 311.094,120.686 310.493 C 120.595 309.892,120.522 310.480,120.524 311.800 M280.124 312.600 C 280.126 313.920,280.201 314.412,280.290 313.693 C 280.379 312.974,280.377 311.894,280.286 311.293 C 280.195 310.692,280.122 311.280,280.124 312.600 M240.138 318.601 C 247.107 320.634,253.867 330.267,253.010 336.944 C 250.981 352.757,231.372 359.355,221.341 347.600 C 209.774 334.043,223.020 313.608,240.138 318.601 M279.693 319.200 C 279.693 319.970,279.775 320.285,279.876 319.900 C 279.976 319.515,279.976 318.885,279.876 318.500 C 279.775 318.115,279.693 318.430,279.693 319.200 M121.324 323.000 C 121.326 324.320,121.401 324.812,121.490 324.093 C 121.579 323.374,121.577 322.294,121.486 321.693 C 121.395 321.092,121.322 321.680,121.324 323.000 M279.328 323.600 C 279.328 325.030,279.401 325.615,279.489 324.900 C 279.578 324.185,279.578 323.015,279.489 322.300 C 279.401 321.585,279.328 322.170,279.328 323.600 M278.893 330.400 C 278.893 331.170,278.975 331.485,279.076 331.100 C 279.176 330.715,279.176 330.085,279.076 329.700 C 278.975 329.315,278.893 329.630,278.893 330.400 M122.124 334.200 C 122.126 335.520,122.201 336.012,122.290 335.293 C 122.379 334.574,122.377 333.494,122.286 332.893 C 122.195 332.292,122.122 332.880,122.124 334.200 M278.528 334.800 C 278.528 336.230,278.601 336.815,278.689 336.100 C 278.778 335.385,278.778 334.215,278.689 333.500 C 278.601 332.785,278.528 333.370,278.528 334.800 M278.101 341.400 C 278.105 342.280,278.187 342.593,278.283 342.095 C 278.379 341.598,278.375 340.878,278.275 340.495 C 278.175 340.113,278.096 340.520,278.101 341.400 M176.565 340.974 C 184.837 343.129,190.947 352.696,189.379 361.040 C 185.300 382.743,154.071 380.596,153.896 358.600 C 153.797 346.176,164.522 337.837,176.565 340.974 M122.924 345.400 C 122.926 346.720,123.001 347.212,123.090 346.493 C 123.179 345.774,123.177 344.694,123.086 344.093 C 122.995 343.492,122.922 344.080,122.924 345.400 M277.731 345.800 C 277.733 347.340,277.805 347.921,277.892 347.091 C 277.979 346.261,277.977 345.001,277.889 344.291 C 277.800 343.581,277.729 344.260,277.731 345.800 M277.301 352.600 C 277.305 353.480,277.387 353.793,277.483 353.295 C 277.579 352.798,277.575 352.078,277.475 351.695 C 277.375 351.313,277.296 351.720,277.301 352.600 M123.724 356.600 C 123.726 357.920,123.801 358.412,123.890 357.693 C 123.979 356.974,123.977 355.894,123.886 355.293 C 123.795 354.692,123.722 355.280,123.724 356.600 M276.924 356.600 C 276.926 357.920,277.001 358.412,277.090 357.693 C 277.179 356.974,277.177 355.894,277.086 355.293 C 276.995 354.692,276.922 355.280,276.924 356.600 M124.093 363.200 C 124.093 363.970,124.175 364.285,124.276 363.900 C 124.376 363.515,124.376 362.885,124.276 362.500 C 124.175 362.115,124.093 362.430,124.093 363.200 M124.528 367.600 C 124.528 369.030,124.601 369.615,124.689 368.900 C 124.778 368.185,124.778 367.015,124.689 366.300 C 124.601 365.585,124.528 366.170,124.528 367.600 M276.131 368.200 C 276.133 369.740,276.205 370.321,276.292 369.491 C 276.379 368.661,276.377 367.401,276.289 366.691 C 276.200 365.981,276.129 366.660,276.131 368.200 M176.300 399.500 C 189.555 399.558,211.245 399.558,224.500 399.500 C 237.755 399.441,226.910 399.394,200.400 399.394 C 173.890 399.394,163.045 399.441,176.300 399.500 " stroke="none" fill="#dbb38b" fill-rule="evenodd"></path><path id="path3" d="M238.600 0.400 C 238.736 0.620,239.242 0.797,239.724 0.794 C 240.436 0.789,240.488 0.715,240.000 0.400 C 239.212 -0.109,238.285 -0.109,238.600 0.400 M224.567 3.829 L 223.000 5.258 224.700 3.962 C 226.253 2.778,226.632 2.400,226.267 2.400 C 226.193 2.400,225.428 3.043,224.567 3.829 M248.382 5.000 C 249.347 6.100,250.220 7.090,250.322 7.200 C 250.425 7.310,250.319 7.040,250.087 6.600 C 249.855 6.160,248.982 5.170,248.147 4.400 C 246.703 3.069,246.715 3.099,248.382 5.000 M221.000 9.200 C 220.850 9.673,220.817 10.150,220.927 10.260 C 221.037 10.370,221.250 10.073,221.400 9.600 C 221.550 9.127,221.583 8.650,221.473 8.540 C 221.363 8.430,221.150 8.727,221.000 9.200 M251.212 10.000 C 251.212 10.330,251.387 10.870,251.600 11.200 C 251.945 11.733,251.988 11.733,251.988 11.200 C 251.988 10.870,251.813 10.330,251.600 10.000 C 251.255 9.467,251.212 9.467,251.212 10.000 M220.449 11.600 C 220.416 11.930,220.289 12.650,220.167 13.200 C 219.975 14.064,220.007 14.103,220.399 13.488 C 220.648 13.097,220.775 12.377,220.681 11.888 C 220.586 11.400,220.482 11.270,220.449 11.600 M252.181 16.478 C 252.171 18.535,252.288 19.753,252.442 19.200 C 252.792 17.941,252.803 14.892,252.460 13.678 C 252.317 13.170,252.192 14.430,252.181 16.478 M219.400 16.800 C 219.248 17.491,219.214 18.147,219.324 18.257 C 219.434 18.367,219.648 17.891,219.800 17.200 C 219.952 16.509,219.986 15.853,219.876 15.743 C 219.766 15.633,219.552 16.109,219.400 16.800 M218.622 21.022 C 218.472 21.825,218.428 22.562,218.526 22.660 C 218.624 22.757,218.827 22.181,218.978 21.378 C 219.128 20.575,219.172 19.838,219.074 19.740 C 218.976 19.643,218.773 20.219,218.622 21.022 M251.400 22.400 C 251.248 23.091,251.207 23.741,251.309 23.842 C 251.411 23.944,251.609 23.453,251.750 22.750 C 252.083 21.083,251.760 20.760,251.400 22.400 M217.800 25.200 C 217.648 25.891,217.614 26.547,217.724 26.657 C 217.834 26.767,218.048 26.291,218.200 25.600 C 218.352 24.909,218.386 24.253,218.276 24.143 C 218.166 24.033,217.952 24.509,217.800 25.200 M250.600 26.400 C 250.448 27.091,250.414 27.747,250.524 27.857 C 250.634 27.967,250.848 27.491,251.000 26.800 C 251.152 26.109,251.186 25.453,251.076 25.343 C 250.966 25.233,250.752 25.709,250.600 26.400 M217.249 28.400 C 217.216 28.730,217.089 29.450,216.967 30.000 C 216.775 30.864,216.807 30.903,217.199 30.288 C 217.448 29.897,217.575 29.177,217.481 28.688 C 217.386 28.200,217.282 28.070,217.249 28.400 M249.850 30.450 C 249.517 32.117,249.840 32.440,250.200 30.800 C 250.352 30.109,250.393 29.459,250.291 29.358 C 250.189 29.256,249.991 29.747,249.850 30.450 M216.222 33.422 C 216.072 34.225,216.038 34.972,216.148 35.082 C 216.258 35.192,216.472 34.625,216.622 33.822 C 216.773 33.019,216.806 32.273,216.696 32.163 C 216.586 32.053,216.373 32.619,216.222 33.422 M249.000 34.800 C 248.848 35.491,248.814 36.147,248.924 36.257 C 249.034 36.367,249.248 35.891,249.400 35.200 C 249.552 34.509,249.586 33.853,249.476 33.743 C 249.366 33.633,249.152 34.109,249.000 34.800 M215.422 37.822 C 215.272 38.625,215.228 39.362,215.326 39.460 C 215.424 39.557,215.627 38.981,215.778 38.178 C 215.928 37.375,215.972 36.638,215.874 36.540 C 215.776 36.443,215.573 37.019,215.422 37.822 M248.249 38.615 C 248.112 38.973,248.016 39.656,248.036 40.133 C 248.062 40.747,248.185 40.608,248.459 39.656 C 248.857 38.272,248.694 37.458,248.249 38.615 M214.600 42.000 C 214.448 42.691,214.414 43.347,214.524 43.457 C 214.634 43.567,214.848 43.091,215.000 42.400 C 215.152 41.709,215.186 41.053,215.076 40.943 C 214.966 40.833,214.752 41.309,214.600 42.000 M247.400 43.200 C 247.248 43.891,247.214 44.547,247.324 44.657 C 247.434 44.767,247.648 44.291,247.800 43.600 C 247.952 42.909,247.986 42.253,247.876 42.143 C 247.766 42.033,247.552 42.509,247.400 43.200 M214.049 45.200 C 214.016 45.530,213.889 46.250,213.767 46.800 C 213.575 47.664,213.607 47.703,213.999 47.088 C 214.248 46.697,214.375 45.977,214.281 45.488 C 214.186 45.000,214.082 44.870,214.049 45.200 M246.650 47.250 C 246.317 48.917,246.640 49.240,247.000 47.600 C 247.152 46.909,247.193 46.259,247.091 46.158 C 246.989 46.056,246.791 46.547,246.650 47.250 M213.022 50.222 C 212.872 51.025,212.838 51.772,212.948 51.882 C 213.058 51.992,213.272 51.425,213.422 50.622 C 213.573 49.819,213.606 49.073,213.496 48.963 C 213.386 48.853,213.173 49.419,213.022 50.222 M245.822 51.422 C 245.672 52.225,245.638 52.972,245.748 53.082 C 245.858 53.192,246.072 52.625,246.222 51.822 C 246.373 51.019,246.406 50.273,246.296 50.163 C 246.186 50.053,245.973 50.619,245.822 51.422 M212.222 54.622 C 212.072 55.425,212.028 56.162,212.126 56.260 C 212.224 56.357,212.427 55.781,212.578 54.978 C 212.728 54.175,212.772 53.438,212.674 53.340 C 212.576 53.243,212.373 53.819,212.222 54.622 M244.978 55.778 C 244.827 56.581,244.794 57.327,244.904 57.437 C 245.014 57.547,245.227 56.981,245.378 56.178 C 245.528 55.375,245.562 54.628,245.452 54.518 C 245.342 54.408,245.128 54.975,244.978 55.778 M211.400 58.800 C 211.248 59.491,211.214 60.147,211.324 60.257 C 211.434 60.367,211.648 59.891,211.800 59.200 C 211.952 58.509,211.986 57.853,211.876 57.743 C 211.766 57.633,211.552 58.109,211.400 58.800 M244.249 59.415 C 244.112 59.773,244.016 60.456,244.036 60.933 C 244.062 61.547,244.185 61.408,244.459 60.456 C 244.857 59.072,244.694 58.258,244.249 59.415 M210.650 62.850 C 210.317 64.517,210.640 64.840,211.000 63.200 C 211.152 62.509,211.193 61.859,211.091 61.758 C 210.989 61.656,210.791 62.147,210.650 62.850 M243.400 64.000 C 243.248 64.691,243.214 65.347,243.324 65.457 C 243.434 65.567,243.648 65.091,243.800 64.400 C 243.952 63.709,243.986 63.053,243.876 62.943 C 243.766 62.833,243.552 63.309,243.400 64.000 M209.713 67.300 C 209.313 68.802,209.327 68.910,209.830 68.224 C 210.312 67.567,210.651 65.600,210.283 65.600 C 210.218 65.600,209.962 66.365,209.713 67.300 M242.650 68.050 C 242.317 69.717,242.640 70.040,243.000 68.400 C 243.152 67.709,243.193 67.059,243.091 66.958 C 242.989 66.856,242.791 67.347,242.650 68.050 M193.800 68.357 C 192.920 68.491,195.980 68.600,200.600 68.600 C 205.220 68.600,208.190 68.478,207.200 68.330 C 205.015 68.001,196.017 68.020,193.800 68.357 M186.400 69.200 C 184.996 69.650,186.463 69.665,188.600 69.223 L 190.200 68.892 188.800 68.886 C 188.030 68.883,186.950 69.024,186.400 69.200 M181.800 70.000 L 181.000 70.344 181.800 70.332 C 182.240 70.326,183.050 70.176,183.600 70.000 L 184.600 69.680 183.600 69.668 C 183.050 69.662,182.240 69.811,181.800 70.000 M178.200 70.800 C 177.696 71.017,177.622 71.144,178.000 71.144 C 178.330 71.144,178.960 70.989,179.400 70.800 C 179.904 70.583,179.978 70.456,179.600 70.456 C 179.270 70.456,178.640 70.611,178.200 70.800 M175.000 71.600 C 174.496 71.817,174.422 71.944,174.800 71.944 C 175.130 71.944,175.760 71.789,176.200 71.600 C 176.704 71.383,176.778 71.256,176.400 71.256 C 176.070 71.256,175.440 71.411,175.000 71.600 M241.800 72.400 C 241.648 73.091,241.614 73.747,241.724 73.857 C 241.834 73.967,242.048 73.491,242.200 72.800 C 242.352 72.109,242.386 71.453,242.276 71.343 C 242.166 71.233,241.952 71.709,241.800 72.400 M241.104 76.190 C 240.922 77.140,241.787 78.400,242.620 78.400 C 242.817 78.400,242.602 78.136,242.142 77.814 C 241.547 77.397,241.361 76.936,241.499 76.214 C 241.606 75.656,241.603 75.200,241.493 75.200 C 241.383 75.200,241.208 75.645,241.104 76.190 M191.000 77.215 C 190.244 77.418,190.762 77.454,192.400 77.315 C 193.830 77.193,195.075 77.028,195.167 76.947 C 195.470 76.680,192.222 76.889,191.000 77.215 M185.800 78.000 L 185.000 78.344 185.800 78.344 C 186.240 78.344,186.960 78.189,187.400 78.000 L 188.200 77.656 187.400 77.656 C 186.960 77.656,186.240 77.811,185.800 78.000 M182.000 78.800 C 181.205 79.314,182.204 79.314,183.400 78.800 L 184.200 78.456 183.400 78.434 C 182.960 78.422,182.330 78.587,182.000 78.800 M207.450 79.650 C 207.117 81.317,207.440 81.640,207.800 80.000 C 207.952 79.309,207.993 78.659,207.891 78.558 C 207.789 78.456,207.591 78.947,207.450 79.650 M154.700 79.829 C 154.095 80.157,153.600 80.510,153.600 80.613 C 153.600 80.999,154.232 80.757,155.200 80.000 C 156.389 79.070,156.211 79.009,154.700 79.829 M178.800 79.600 C 178.005 80.114,179.004 80.114,180.200 79.600 L 181.000 79.256 180.200 79.234 C 179.760 79.222,179.130 79.387,178.800 79.600 M244.800 79.379 C 244.800 79.489,245.340 79.859,246.000 80.200 C 246.660 80.541,247.200 80.731,247.200 80.621 C 247.200 80.511,246.660 80.141,246.000 79.800 C 245.340 79.459,244.800 79.269,244.800 79.379 M148.721 83.570 C 146.455 85.094,143.970 86.903,143.200 87.590 C 142.430 88.277,143.150 87.869,144.800 86.683 C 146.450 85.498,149.015 83.763,150.500 82.828 C 152.937 81.294,153.551 80.800,153.021 80.800 C 152.923 80.800,150.988 82.047,148.721 83.570 M248.366 81.482 C 250.002 82.698,252.805 84.234,251.600 83.253 C 251.050 82.806,249.880 82.063,249.000 81.602 C 247.814 80.980,247.650 80.949,248.366 81.482 M206.622 83.822 C 206.472 84.625,206.438 85.372,206.548 85.482 C 206.658 85.592,206.872 85.025,207.022 84.222 C 207.173 83.419,207.206 82.673,207.096 82.563 C 206.986 82.453,206.773 83.019,206.622 83.822 M252.905 84.247 C 253.031 84.451,253.991 85.232,255.037 85.984 C 256.084 86.735,256.809 87.139,256.650 86.880 C 256.490 86.622,255.531 85.840,254.518 85.143 C 253.505 84.447,252.780 84.043,252.905 84.247 M205.778 88.178 C 205.627 88.981,205.594 89.727,205.704 89.837 C 205.814 89.947,206.027 89.381,206.178 88.578 C 206.328 87.775,206.362 87.028,206.252 86.918 C 206.142 86.808,205.928 87.375,205.778 88.178 M238.792 88.430 C 238.551 89.326,238.431 90.271,238.525 90.530 C 238.620 90.788,238.834 90.280,239.001 89.400 C 239.168 88.520,239.483 87.575,239.701 87.300 C 239.968 86.963,239.956 86.800,239.664 86.800 C 239.426 86.800,239.033 87.533,238.792 88.430 M158.500 88.226 C 157.565 88.787,156.800 89.340,156.800 89.455 C 156.800 89.671,159.499 88.138,160.180 87.536 C 160.867 86.928,160.227 87.191,158.500 88.226 M240.400 87.379 C 240.400 87.489,240.940 87.859,241.600 88.200 C 242.260 88.541,242.800 88.731,242.800 88.621 C 242.800 88.511,242.260 88.141,241.600 87.800 C 240.940 87.459,240.400 87.269,240.400 87.379 M136.621 93.248 C 134.076 95.695,131.251 98.620,130.343 99.748 C 129.435 100.877,130.077 100.319,131.771 98.510 C 133.465 96.700,136.414 93.777,138.325 92.013 C 140.236 90.250,141.676 88.806,141.524 88.804 C 141.372 88.802,139.166 90.802,136.621 93.248 M262.665 92.110 C 264.471 93.820,267.335 96.700,269.029 98.510 C 270.723 100.319,271.377 100.900,270.483 99.800 C 268.836 97.774,262.242 91.233,260.390 89.788 C 259.834 89.354,260.858 90.399,262.665 92.110 M244.400 89.718 C 244.400 89.811,245.435 90.569,246.700 91.403 C 247.965 92.236,248.689 92.567,248.309 92.138 C 247.641 91.383,244.400 89.376,244.400 89.718 M205.000 92.400 C 204.848 93.091,204.807 93.741,204.909 93.842 C 205.011 93.944,205.209 93.453,205.350 92.750 C 205.683 91.083,205.360 90.760,205.000 92.400 M237.778 93.378 C 237.627 94.181,237.594 94.927,237.704 95.037 C 237.814 95.147,238.027 94.581,238.178 93.778 C 238.328 92.975,238.362 92.228,238.252 92.118 C 238.142 92.008,237.928 92.575,237.778 93.378 M147.518 95.704 C 146.042 96.857,144.827 97.943,144.818 98.117 C 144.808 98.292,146.060 97.416,147.600 96.172 C 150.053 94.190,150.684 93.590,150.300 93.604 C 150.245 93.606,148.993 94.551,147.518 95.704 M250.400 93.690 C 250.400 93.793,251.975 95.139,253.900 96.681 C 255.825 98.223,259.095 101.176,261.167 103.243 C 263.633 105.702,264.280 106.226,263.041 104.758 C 261.160 102.530,257.626 99.251,253.800 96.183 C 250.813 93.787,250.400 93.484,250.400 93.690 M204.250 96.450 C 203.917 98.117,204.240 98.440,204.600 96.800 C 204.752 96.109,204.793 95.459,204.691 95.358 C 204.589 95.256,204.391 95.747,204.250 96.450 M237.049 97.015 C 236.912 97.373,236.816 98.056,236.836 98.533 C 236.862 99.147,236.985 99.008,237.259 98.056 C 237.657 96.672,237.494 95.858,237.049 97.015 M141.532 100.911 C 140.065 102.280,138.180 104.210,137.344 105.200 C 136.508 106.190,137.750 105.110,140.104 102.800 C 142.458 100.490,144.388 98.555,144.392 98.500 C 144.411 98.257,144.048 98.563,141.532 100.911 M203.422 100.622 C 203.272 101.425,203.238 102.172,203.348 102.282 C 203.458 102.392,203.672 101.825,203.822 101.022 C 203.973 100.219,204.006 99.473,203.896 99.363 C 203.786 99.253,203.573 99.819,203.422 100.622 M236.200 101.600 C 236.048 102.291,236.014 102.947,236.124 103.057 C 236.234 103.167,236.448 102.691,236.600 102.000 C 236.752 101.309,236.786 100.653,236.676 100.543 C 236.566 100.433,236.352 100.909,236.200 101.600 M126.692 104.300 C 123.695 108.230,120.488 113.200,120.950 113.200 C 121.048 113.200,121.893 111.985,122.828 110.500 C 123.763 109.015,125.491 106.495,126.667 104.900 C 127.843 103.305,128.725 102.000,128.626 102.000 C 128.528 102.000,127.657 103.035,126.692 104.300 M202.578 104.978 C 202.427 105.781,202.394 106.527,202.504 106.637 C 202.614 106.747,202.827 106.181,202.978 105.378 C 203.128 104.575,203.162 103.828,203.052 103.718 C 202.942 103.608,202.728 104.175,202.578 104.978 M276.613 108.446 C 279.660 113.037,280.492 114.142,279.592 112.400 C 278.796 110.861,274.467 104.489,274.036 104.222 C 273.826 104.092,274.985 105.993,276.613 108.446 M235.450 105.650 C 235.117 107.317,235.440 107.640,235.800 106.000 C 235.952 105.309,235.993 104.659,235.891 104.558 C 235.789 104.456,235.591 104.947,235.450 105.650 M266.665 109.600 C 268.592 112.082,269.645 113.003,267.923 110.700 C 267.388 109.985,266.601 108.911,266.175 108.313 C 265.749 107.714,265.265 107.219,265.100 107.213 C 264.936 107.206,265.640 108.280,266.665 109.600 M201.800 109.200 C 201.648 109.891,201.607 110.541,201.709 110.642 C 201.811 110.744,202.009 110.253,202.150 109.550 C 202.483 107.883,202.160 107.560,201.800 109.200 M234.600 110.000 C 234.448 110.691,234.414 111.347,234.524 111.457 C 234.634 111.567,234.848 111.091,235.000 110.400 C 235.152 109.709,235.186 109.053,235.076 108.943 C 234.966 108.833,234.752 109.309,234.600 110.000 M133.544 109.900 C 132.393 111.289,131.906 112.000,132.104 112.000 C 132.214 112.000,132.786 111.370,133.373 110.600 C 134.463 109.171,134.595 108.632,133.544 109.900 M201.000 113.200 C 200.848 113.891,200.814 114.547,200.924 114.657 C 201.034 114.767,201.248 114.291,201.400 113.600 C 201.552 112.909,201.586 112.253,201.476 112.143 C 201.366 112.033,201.152 112.509,201.000 113.200 M269.785 113.900 C 270.402 114.835,270.977 115.600,271.063 115.600 C 271.396 115.600,270.018 113.313,269.358 112.771 C 268.966 112.448,269.151 112.939,269.785 113.900 M233.778 114.178 C 233.627 114.981,233.594 115.727,233.704 115.837 C 233.814 115.947,234.027 115.381,234.178 114.578 C 234.328 113.775,234.362 113.028,234.252 112.918 C 234.142 112.808,233.928 113.375,233.778 114.178 M119.786 114.900 L 119.152 116.200 119.967 115.200 C 120.752 114.237,121.008 113.600,120.610 113.600 C 120.506 113.600,120.135 114.185,119.786 114.900 M280.600 114.800 C 280.941 115.460,281.311 116.000,281.421 116.000 C 281.531 116.000,281.341 115.460,281.000 114.800 C 280.659 114.140,280.289 113.600,280.179 113.600 C 280.069 113.600,280.259 114.140,280.600 114.800 M200.222 117.422 C 200.072 118.225,200.038 118.972,200.148 119.082 C 200.258 119.192,200.472 118.625,200.622 117.822 C 200.773 117.019,200.806 116.273,200.696 116.163 C 200.586 116.053,200.373 116.619,200.222 117.422 M233.000 118.400 C 232.848 119.091,232.807 119.741,232.909 119.842 C 233.011 119.944,233.209 119.453,233.350 118.750 C 233.683 117.083,233.360 116.760,233.000 118.400 M273.400 119.600 C 273.741 120.260,274.111 120.800,274.221 120.800 C 274.331 120.800,274.141 120.260,273.800 119.600 C 273.459 118.940,273.089 118.400,272.979 118.400 C 272.869 118.400,273.059 118.940,273.400 119.600 M199.378 121.778 C 199.227 122.581,199.194 123.327,199.304 123.437 C 199.414 123.547,199.627 122.981,199.778 122.178 C 199.928 121.375,199.962 120.628,199.852 120.518 C 199.742 120.408,199.528 120.975,199.378 121.778 M232.250 122.450 C 231.917 124.117,232.240 124.440,232.600 122.800 C 232.752 122.109,232.793 121.459,232.691 121.358 C 232.589 121.256,232.391 121.747,232.250 122.450 M198.600 126.000 C 198.448 126.691,198.407 127.341,198.509 127.442 C 198.611 127.544,198.809 127.053,198.950 126.350 C 199.283 124.683,198.960 124.360,198.600 126.000 M231.422 126.622 C 231.272 127.425,231.228 128.162,231.326 128.260 C 231.424 128.357,231.627 127.781,231.778 126.978 C 231.928 126.175,231.972 125.438,231.874 125.340 C 231.776 125.243,231.573 125.819,231.422 126.622 M197.800 130.000 C 197.648 130.691,197.614 131.347,197.724 131.457 C 197.834 131.567,198.048 131.091,198.200 130.400 C 198.352 129.709,198.386 129.053,198.276 128.943 C 198.166 128.833,197.952 129.309,197.800 130.000 M230.578 130.978 C 230.427 131.781,230.394 132.527,230.504 132.637 C 230.614 132.747,230.827 132.181,230.978 131.378 C 231.128 130.575,231.162 129.828,231.052 129.718 C 230.942 129.608,230.728 130.175,230.578 130.978 M197.022 134.222 C 196.872 135.025,196.838 135.772,196.948 135.882 C 197.058 135.992,197.272 135.425,197.422 134.622 C 197.573 133.819,197.606 133.073,197.496 132.963 C 197.386 132.853,197.173 133.419,197.022 134.222 M229.849 134.615 C 229.712 134.973,229.616 135.656,229.636 136.133 C 229.662 136.747,229.785 136.608,230.059 135.656 C 230.457 134.272,230.294 133.458,229.849 134.615 M111.429 135.429 C 111.281 136.015,111.238 136.572,111.332 136.666 C 111.427 136.760,111.624 136.358,111.771 135.771 C 111.919 135.185,111.962 134.628,111.868 134.534 C 111.773 134.440,111.576 134.842,111.429 135.429 M120.200 135.200 C 120.050 135.673,120.017 136.150,120.127 136.260 C 120.237 136.370,120.450 136.073,120.600 135.600 C 120.750 135.127,120.783 134.650,120.673 134.540 C 120.563 134.430,120.350 134.727,120.200 135.200 M288.856 134.800 C 288.856 135.130,289.011 135.760,289.200 136.200 C 289.417 136.704,289.544 136.778,289.544 136.400 C 289.544 136.070,289.389 135.440,289.200 135.000 C 288.983 134.496,288.856 134.422,288.856 134.800 M119.429 137.829 C 119.281 138.415,119.238 138.972,119.332 139.066 C 119.427 139.160,119.624 138.758,119.771 138.171 C 119.919 137.585,119.962 137.028,119.868 136.934 C 119.773 136.840,119.576 137.242,119.429 137.829 M280.856 137.200 C 280.856 137.530,281.011 138.160,281.200 138.600 C 281.417 139.104,281.544 139.178,281.544 138.800 C 281.544 138.470,281.389 137.840,281.200 137.400 C 280.983 136.896,280.856 136.822,280.856 137.200 M196.178 138.578 C 196.027 139.381,195.994 140.127,196.104 140.237 C 196.214 140.347,196.427 139.781,196.578 138.978 C 196.728 138.175,196.762 137.428,196.652 137.318 C 196.542 137.208,196.328 137.775,196.178 138.578 M110.629 138.629 C 110.481 139.215,110.438 139.772,110.532 139.866 C 110.627 139.960,110.824 139.558,110.971 138.971 C 111.119 138.385,111.162 137.828,111.068 137.734 C 110.973 137.640,110.776 138.042,110.629 138.629 M289.656 138.000 C 289.656 138.330,289.811 138.960,290.000 139.400 C 290.217 139.904,290.344 139.978,290.344 139.600 C 290.344 139.270,290.189 138.640,290.000 138.200 C 289.783 137.696,289.656 137.622,289.656 138.000 M229.000 139.200 C 228.848 139.891,228.814 140.547,228.924 140.657 C 229.034 140.767,229.248 140.291,229.400 139.600 C 229.552 138.909,229.586 138.253,229.476 138.143 C 229.366 138.033,229.152 138.509,229.000 139.200 M118.629 141.029 C 118.481 141.615,118.438 142.172,118.532 142.266 C 118.627 142.360,118.824 141.958,118.971 141.371 C 119.119 140.785,119.162 140.228,119.068 140.134 C 118.973 140.040,118.776 140.442,118.629 141.029 M281.634 140.400 C 281.646 140.730,281.811 141.360,282.000 141.800 L 282.344 142.600 282.366 141.800 C 282.378 141.360,282.213 140.730,282.000 140.400 C 281.655 139.867,281.615 139.867,281.634 140.400 M290.468 141.600 C 290.462 142.150,290.611 142.960,290.800 143.400 L 291.144 144.200 291.132 143.400 C 291.126 142.960,290.976 142.150,290.800 141.600 L 290.480 140.600 290.468 141.600 M109.778 142.578 C 109.627 143.381,109.594 144.127,109.704 144.237 C 109.814 144.347,110.027 143.781,110.178 142.978 C 110.328 142.175,110.362 141.428,110.252 141.318 C 110.142 141.208,109.928 141.775,109.778 142.578 M195.400 142.800 C 195.248 143.491,195.207 144.141,195.309 144.242 C 195.411 144.344,195.609 143.853,195.750 143.150 C 196.083 141.483,195.760 141.160,195.400 142.800 M228.250 143.250 C 227.917 144.917,228.240 145.240,228.600 143.600 C 228.752 142.909,228.793 142.259,228.691 142.158 C 228.589 142.056,228.391 142.547,228.250 143.250 M117.822 145.022 C 117.672 145.825,117.628 146.562,117.726 146.660 C 117.824 146.757,118.027 146.181,118.178 145.378 C 118.328 144.575,118.372 143.838,118.274 143.740 C 118.176 143.643,117.973 144.219,117.822 145.022 M282.456 144.200 C 282.456 144.640,282.611 145.360,282.800 145.800 L 283.144 146.600 283.144 145.800 C 283.144 145.360,282.989 144.640,282.800 144.200 L 282.456 143.400 282.456 144.200 M109.082 146.750 C 108.927 147.493,108.820 148.572,108.844 149.150 C 108.873 149.842,109.010 149.587,109.247 148.400 C 109.445 147.410,109.552 146.330,109.485 146.000 C 109.419 145.670,109.238 146.008,109.082 146.750 M194.600 146.800 C 194.448 147.491,194.414 148.147,194.524 148.257 C 194.634 148.367,194.848 147.891,195.000 147.200 C 195.152 146.509,195.186 145.853,195.076 145.743 C 194.966 145.633,194.752 146.109,194.600 146.800 M291.481 147.600 C 291.606 148.810,291.774 149.875,291.854 149.967 C 292.135 150.287,291.917 147.391,291.587 146.400 C 291.371 145.754,291.334 146.180,291.481 147.600 M227.422 147.422 C 227.272 148.225,227.238 148.972,227.348 149.082 C 227.458 149.192,227.672 148.625,227.822 147.822 C 227.973 147.019,228.006 146.273,227.896 146.163 C 227.786 146.053,227.573 146.619,227.422 147.422 M283.269 148.800 C 283.256 149.350,283.395 150.520,283.577 151.400 C 283.789 152.426,283.916 152.641,283.931 152.000 C 283.944 151.450,283.805 150.280,283.623 149.400 C 283.411 148.374,283.284 148.159,283.269 148.800 M117.000 150.400 C 116.845 151.528,116.808 152.541,116.918 152.651 C 117.028 152.761,117.245 151.928,117.400 150.800 C 117.555 149.672,117.592 148.659,117.482 148.549 C 117.372 148.439,117.155 149.272,117.000 150.400 M194.049 150.000 C 194.016 150.330,193.889 151.050,193.767 151.600 C 193.575 152.464,193.607 152.503,193.999 151.888 C 194.248 151.497,194.375 150.777,194.281 150.288 C 194.186 149.800,194.082 149.670,194.049 150.000 M226.578 151.778 C 226.427 152.581,226.394 153.327,226.504 153.437 C 226.614 153.547,226.827 152.981,226.978 152.178 C 227.128 151.375,227.162 150.628,227.052 150.518 C 226.942 150.408,226.728 150.975,226.578 151.778 M292.055 153.400 C 292.002 155.326,292.355 156.800,292.870 156.800 C 293.078 156.800,293.125 156.602,292.975 156.360 C 292.825 156.117,292.567 154.992,292.401 153.860 C 292.112 151.884,292.098 151.865,292.055 153.400 M108.454 153.474 C 108.425 154.175,108.224 155.210,108.010 155.774 C 107.774 156.393,107.767 156.800,107.992 156.800 C 108.466 156.800,108.925 154.400,108.689 153.152 C 108.544 152.384,108.498 152.447,108.454 153.474 M193.073 154.904 L 192.783 156.008 154.791 155.904 C 129.595 155.835,116.845 155.935,116.933 156.200 C 117.227 157.081,192.172 156.915,192.971 156.032 C 193.356 155.607,193.601 154.931,193.517 154.530 C 193.400 153.974,193.294 154.064,193.073 154.904 M226.046 155.457 C 226.021 155.929,226.285 156.424,226.633 156.557 C 227.758 156.989,283.531 156.836,283.800 156.400 C 283.964 156.135,274.347 156.000,255.253 156.000 C 228.166 156.000,226.448 155.958,226.276 155.300 C 226.131 154.748,226.083 154.781,226.046 155.457 M104.400 157.200 C 103.867 157.545,103.867 157.588,104.400 157.588 C 104.730 157.588,105.270 157.413,105.600 157.200 C 106.133 156.855,106.133 156.812,105.600 156.812 C 105.270 156.812,104.730 156.987,104.400 157.200 M295.200 157.200 C 295.530 157.413,296.070 157.588,296.400 157.588 C 296.933 157.588,296.933 157.545,296.400 157.200 C 296.070 156.987,295.530 156.812,295.200 156.812 C 294.667 156.812,294.667 156.855,295.200 157.200 M101.301 158.773 C 99.631 159.982,98.053 161.853,97.228 163.600 C 96.684 164.751,96.972 164.414,98.959 161.567 C 99.597 160.654,100.937 159.388,101.938 158.754 C 102.938 158.119,103.568 157.600,103.338 157.600 C 103.108 157.600,102.192 158.128,101.301 158.773 M298.400 158.441 C 299.170 158.902,300.426 159.847,301.191 160.540 C 302.052 161.319,302.281 161.434,301.791 160.841 C 300.824 159.670,298.043 157.599,297.440 157.601 C 297.198 157.602,297.630 157.980,298.400 158.441 M107.248 165.713 C 102.791 167.811,102.800 177.145,107.261 179.370 C 109.315 180.395,292.041 180.268,293.800 179.241 C 297.992 176.792,297.943 167.820,293.727 165.798 C 291.598 164.778,109.412 164.695,107.248 165.713 M293.596 166.198 C 297.367 168.148,297.083 176.992,293.185 179.008 C 291.450 179.905,109.350 179.905,107.615 179.008 C 103.876 177.074,103.409 168.524,106.926 166.380 C 108.674 165.314,291.541 165.135,293.596 166.198 M95.744 172.400 C 95.744 174.490,95.812 175.345,95.894 174.300 C 95.976 173.255,95.976 171.545,95.894 170.500 C 95.812 169.455,95.744 170.310,95.744 172.400 M304.944 172.400 C 304.944 174.490,305.012 175.345,305.094 174.300 C 305.176 173.255,305.176 171.545,305.094 170.500 C 305.012 169.455,304.944 170.310,304.944 172.400 M302.830 181.351 C 301.997 182.699,299.498 185.163,297.600 186.509 L 296.600 187.218 297.812 186.644 C 299.266 185.956,302.318 182.963,303.323 181.239 C 304.302 179.560,303.877 179.657,302.830 181.351 M97.981 181.965 C 98.627 183.171,101.682 186.022,103.000 186.648 L 104.200 187.218 103.200 186.533 C 102.650 186.156,101.159 184.802,99.886 183.524 C 98.614 182.247,97.756 181.545,97.981 181.965 M104.800 187.600 C 105.130 187.813,105.670 187.988,106.000 187.988 C 106.533 187.988,106.533 187.945,106.000 187.600 C 105.670 187.387,105.130 187.212,104.800 187.212 C 104.267 187.212,104.267 187.255,104.800 187.600 M109.400 188.552 C 111.613 189.021,112.388 189.047,111.967 188.639 C 111.875 188.550,110.720 188.380,109.400 188.261 L 107.000 188.044 109.400 188.552 M290.300 188.291 C 289.475 188.378,288.800 188.590,288.800 188.764 C 288.800 189.074,293.199 188.534,293.552 188.181 C 293.740 187.993,292.866 188.023,290.300 188.291 M112.035 192.833 C 112.054 194.025,112.220 195.900,112.404 197.000 C 112.640 198.415,112.674 197.830,112.521 195.000 C 112.287 190.683,111.978 189.304,112.035 192.833 M288.251 194.940 C 288.083 197.106,288.031 198.964,288.135 199.068 C 288.394 199.327,288.924 192.716,288.720 191.765 C 288.630 191.344,288.419 192.773,288.251 194.940 M112.835 203.633 C 112.854 204.825,113.017 206.700,113.197 207.800 C 113.424 209.185,113.458 208.571,113.310 205.800 C 113.078 201.479,112.778 200.111,112.835 203.633 M287.465 205.945 C 287.296 208.225,287.240 210.173,287.340 210.274 C 287.599 210.532,288.112 203.990,287.927 202.791 C 287.842 202.246,287.635 203.665,287.465 205.945 M113.635 214.833 C 113.654 216.025,113.817 217.900,113.997 219.000 C 114.224 220.385,114.258 219.771,114.110 217.000 C 113.878 212.679,113.578 211.311,113.635 214.833 M286.665 217.145 C 286.496 219.425,286.440 221.373,286.540 221.474 C 286.799 221.732,287.312 215.190,287.127 213.991 C 287.042 213.446,286.835 214.865,286.665 217.145 M114.435 226.033 C 114.454 227.225,114.620 229.100,114.804 230.200 C 115.040 231.615,115.074 231.030,114.921 228.200 C 114.687 223.883,114.378 222.504,114.435 226.033 M285.851 228.140 C 285.683 230.306,285.631 232.164,285.735 232.268 C 285.994 232.527,286.524 225.916,286.320 224.965 C 286.230 224.544,286.019 225.973,285.851 228.140 M115.235 237.233 C 115.254 238.425,115.420 240.300,115.604 241.400 C 115.840 242.815,115.874 242.230,115.721 239.400 C 115.487 235.083,115.178 233.704,115.235 237.233 M285.051 239.340 C 284.883 241.506,284.831 243.364,284.935 243.468 C 285.194 243.727,285.724 237.116,285.520 236.165 C 285.430 235.744,285.219 237.173,285.051 239.340 M116.035 248.433 C 116.054 249.625,116.220 251.500,116.404 252.600 C 116.640 254.015,116.674 253.430,116.521 250.600 C 116.287 246.283,115.978 244.904,116.035 248.433 M284.268 250.155 C 284.108 252.330,284.054 254.188,284.150 254.283 C 284.397 254.530,284.917 247.886,284.722 246.965 C 284.633 246.544,284.429 247.980,284.268 250.155 M116.835 259.433 C 116.854 260.735,117.019 262.700,117.201 263.800 C 117.429 265.178,117.465 264.493,117.316 261.600 C 117.080 257.012,116.779 255.657,116.835 259.433 M283.468 261.355 C 283.308 263.530,283.254 265.388,283.350 265.483 C 283.597 265.730,284.117 259.086,283.922 258.165 C 283.833 257.744,283.629 259.180,283.468 261.355 M117.635 270.433 C 117.654 271.625,117.820 273.500,118.004 274.600 C 118.240 276.015,118.274 275.430,118.121 272.600 C 117.887 268.283,117.578 266.904,117.635 270.433 M282.651 272.540 C 282.483 274.706,282.431 276.564,282.535 276.668 C 282.794 276.927,283.324 270.316,283.120 269.365 C 283.030 268.944,282.819 270.373,282.651 272.540 M118.435 281.633 C 118.454 282.825,118.620 284.700,118.804 285.800 C 119.040 287.215,119.074 286.630,118.921 283.800 C 118.687 279.483,118.378 278.104,118.435 281.633 M281.851 283.740 C 281.683 285.906,281.631 287.764,281.735 287.868 C 281.994 288.127,282.524 281.516,282.320 280.565 C 282.230 280.144,282.019 281.573,281.851 283.740 M119.235 292.633 C 119.254 293.715,119.419 295.500,119.600 296.600 C 119.836 298.026,119.869 297.510,119.715 294.800 C 119.484 290.750,119.177 289.360,119.235 292.633 M281.065 294.745 C 280.896 297.025,280.840 298.973,280.940 299.074 C 281.199 299.332,281.712 292.790,281.527 291.591 C 281.442 291.046,281.235 292.465,281.065 294.745 M120.035 303.633 C 120.054 304.825,120.217 306.700,120.397 307.800 C 120.624 309.185,120.658 308.571,120.510 305.800 C 120.278 301.479,119.978 300.111,120.035 303.633 M280.265 305.945 C 280.096 308.225,280.040 310.173,280.140 310.274 C 280.399 310.532,280.912 303.990,280.727 302.791 C 280.642 302.246,280.435 303.665,280.265 305.945 M120.835 314.833 C 120.854 316.025,121.020 317.900,121.204 319.000 C 121.440 320.415,121.474 319.830,121.321 317.000 C 121.087 312.683,120.778 311.304,120.835 314.833 M279.451 316.940 C 279.283 319.106,279.231 320.964,279.335 321.068 C 279.594 321.327,280.124 314.716,279.920 313.765 C 279.830 313.344,279.619 314.773,279.451 316.940 M121.635 326.033 C 121.654 327.225,121.820 329.100,122.004 330.200 C 122.240 331.615,122.274 331.030,122.121 328.200 C 121.887 323.883,121.578 322.504,121.635 326.033 M278.651 328.140 C 278.483 330.306,278.431 332.164,278.535 332.268 C 278.794 332.527,279.324 325.916,279.120 324.965 C 279.030 324.544,278.819 325.973,278.651 328.140 M122.435 337.233 C 122.454 338.425,122.620 340.300,122.804 341.400 C 123.040 342.815,123.074 342.230,122.921 339.400 C 122.687 335.083,122.378 333.704,122.435 337.233 M277.868 338.955 C 277.708 341.130,277.654 342.988,277.750 343.083 C 277.997 343.330,278.517 336.686,278.322 335.765 C 278.233 335.344,278.029 336.780,277.868 338.955 M123.235 348.233 C 123.254 349.535,123.419 351.500,123.601 352.600 C 123.829 353.978,123.865 353.293,123.716 350.400 C 123.480 345.812,123.179 344.457,123.235 348.233 M277.068 350.155 C 276.908 352.330,276.854 354.188,276.950 354.283 C 277.197 354.530,277.717 347.886,277.522 346.965 C 277.433 346.544,277.229 347.980,277.068 350.155 M124.035 359.233 C 124.054 360.425,124.220 362.300,124.404 363.400 C 124.640 364.815,124.674 364.230,124.521 361.400 C 124.287 357.083,123.978 355.704,124.035 359.233 M276.251 361.340 C 276.083 363.506,276.031 365.364,276.135 365.468 C 276.394 365.727,276.924 359.116,276.720 358.165 C 276.630 357.744,276.419 359.173,276.251 361.340 M124.840 370.433 C 124.862 371.625,125.027 373.050,125.206 373.600 C 125.399 374.192,125.442 373.376,125.311 371.600 C 125.047 368.036,124.784 367.383,124.840 370.433 M275.665 370.000 C 275.625 370.770,275.504 372.120,275.397 373.000 L 275.203 374.600 275.623 373.262 C 275.854 372.527,275.974 371.177,275.891 370.262 C 275.748 368.691,275.736 368.677,275.665 370.000 M125.656 375.600 C 125.656 375.930,125.811 376.560,126.000 377.000 C 126.217 377.504,126.344 377.578,126.344 377.200 C 126.344 376.870,126.189 376.240,126.000 375.800 C 125.783 375.296,125.656 375.222,125.656 375.600 M128.600 383.200 C 128.941 383.860,129.311 384.400,129.421 384.400 C 129.531 384.400,129.341 383.860,129.000 383.200 C 128.659 382.540,128.289 382.000,128.179 382.000 C 128.069 382.000,128.259 382.540,128.600 383.200 M130.277 386.031 C 130.675 386.708,131.256 387.473,131.568 387.731 C 131.880 387.989,131.632 387.435,131.015 386.500 C 129.720 384.537,129.209 384.212,130.277 386.031 M269.785 386.500 C 269.168 387.435,268.920 387.989,269.232 387.731 C 269.833 387.234,271.364 384.800,271.076 384.800 C 270.983 384.800,270.402 385.565,269.785 386.500 M265.585 391.629 L 264.200 392.858 265.700 391.781 C 267.026 390.830,267.457 390.400,267.085 390.400 C 267.022 390.400,266.347 390.953,265.585 391.629 M139.200 394.590 C 139.200 394.824,141.439 396.001,141.880 395.999 C 142.056 395.998,141.611 395.638,140.890 395.199 C 139.551 394.382,139.200 394.256,139.200 394.590 M260.300 395.029 C 258.805 395.840,258.896 396.178,260.400 395.400 C 261.060 395.059,261.600 394.694,261.600 394.590 C 261.600 394.332,261.557 394.347,260.300 395.029 M150.000 398.779 C 150.986 399.116,154.290 399.341,153.967 399.050 C 153.875 398.968,152.720 398.796,151.400 398.669 C 149.845 398.520,149.352 398.558,150.000 398.779 M248.200 398.800 L 246.600 399.086 248.200 399.103 C 249.080 399.113,250.250 398.976,250.800 398.800 L 251.800 398.480 250.800 398.497 C 250.250 398.506,249.080 398.642,248.200 398.800 " stroke="none" fill="#909090" fill-rule="evenodd"></path><path id="path4" d="M252.093 15.600 C 252.093 16.370,252.175 16.685,252.276 16.300 C 252.376 15.915,252.376 15.285,252.276 14.900 C 252.175 14.515,252.093 14.830,252.093 15.600 M198.117 68.697 C 199.611 68.774,201.951 68.774,203.317 68.696 C 204.682 68.618,203.460 68.555,200.600 68.555 C 197.740 68.556,196.622 68.620,198.117 68.697 M137.200 93.000 C 136.228 93.990,135.523 94.800,135.633 94.800 C 135.743 94.800,136.628 93.990,137.600 93.000 C 138.572 92.010,139.277 91.200,139.167 91.200 C 139.057 91.200,138.172 92.010,137.200 93.000 M262.800 92.600 C 263.546 93.370,264.247 94.000,264.357 94.000 C 264.467 94.000,263.946 93.370,263.200 92.600 C 262.454 91.830,261.753 91.200,261.643 91.200 C 261.533 91.200,262.054 91.830,262.800 92.600 M132.800 97.400 C 131.828 98.390,131.123 99.200,131.233 99.200 C 131.343 99.200,132.228 98.390,133.200 97.400 C 134.172 96.410,134.877 95.600,134.767 95.600 C 134.657 95.600,133.772 96.410,132.800 97.400 M268.000 97.800 C 268.746 98.570,269.447 99.200,269.557 99.200 C 269.667 99.200,269.146 98.570,268.400 97.800 C 267.654 97.030,266.953 96.400,266.843 96.400 C 266.733 96.400,267.254 97.030,268.000 97.800 M156.068 165.100 C 180.415 165.157,220.375 165.157,244.868 165.100 C 269.361 165.043,249.440 164.996,200.600 164.996 C 151.760 164.996,131.721 165.043,156.068 165.100 M289.700 188.276 C 290.085 188.376,290.715 188.376,291.100 188.276 C 291.485 188.175,291.170 188.093,290.400 188.093 C 289.630 188.093,289.315 188.175,289.700 188.276 M120.952 191.900 C 121.100 193.825,121.392 197.920,121.601 201.000 C 121.810 204.080,122.161 209.120,122.380 212.200 C 122.599 215.280,122.959 220.500,123.180 223.800 C 123.400 227.100,123.769 232.410,124.000 235.600 C 124.230 238.790,124.591 243.920,124.803 247.000 C 125.014 250.080,125.365 255.210,125.584 258.400 C 125.803 261.590,126.161 266.720,126.380 269.800 C 126.599 272.880,126.959 278.100,127.180 281.400 C 127.400 284.700,127.769 290.010,128.000 293.200 C 128.230 296.390,128.597 301.610,128.816 304.800 C 129.035 307.990,129.386 313.120,129.597 316.200 C 129.809 319.280,130.161 324.320,130.380 327.400 C 130.599 330.480,130.959 335.700,131.180 339.000 C 131.400 342.300,131.770 347.610,132.000 350.800 C 132.230 353.990,132.597 359.210,132.814 362.400 C 133.859 377.739,138.662 385.925,148.800 389.646 L 151.400 390.600 200.600 390.600 C 251.672 390.600,250.082 390.646,253.600 389.072 C 258.843 386.726,264.138 380.779,266.728 374.326 C 267.242 373.045,267.638 368.424,269.204 345.400 C 269.428 342.100,269.784 336.970,269.994 334.000 C 270.204 331.030,270.567 325.810,270.800 322.400 C 271.292 315.198,271.842 307.313,272.403 299.400 C 272.621 296.320,272.982 291.100,273.206 287.800 C 273.429 284.500,273.784 279.370,273.994 276.400 C 274.204 273.430,274.567 268.210,274.800 264.800 C 275.292 257.598,275.842 249.713,276.403 241.800 C 276.621 238.720,276.982 233.500,277.206 230.200 C 277.429 226.900,277.785 221.770,277.996 218.800 C 278.207 215.830,278.573 210.520,278.809 207.000 C 279.045 203.480,279.410 198.499,279.619 195.931 C 279.829 193.363,280.000 190.618,280.000 189.831 L 280.000 188.400 200.341 188.400 L 120.682 188.400 120.952 191.900 M279.429 189.870 C 279.287 190.238,278.998 193.433,278.786 196.970 C 278.574 200.506,278.219 205.920,277.998 209.000 C 277.614 214.351,277.212 220.144,276.402 232.000 C 276.199 234.970,275.842 240.100,275.608 243.400 C 275.375 246.700,275.015 251.920,274.810 255.000 C 274.604 258.080,274.239 263.300,273.998 266.600 C 273.758 269.900,273.396 275.030,273.195 278.000 C 272.759 284.437,272.151 293.236,271.593 301.200 C 271.369 304.390,271.017 309.520,270.811 312.600 C 270.605 315.680,270.239 320.900,269.998 324.200 C 269.758 327.500,269.396 332.630,269.194 335.600 C 266.765 371.338,266.657 372.592,265.809 374.994 C 263.719 380.909,257.193 387.322,251.277 389.274 C 248.635 390.145,153.062 390.425,150.360 389.569 C 143.521 387.404,137.839 381.756,135.302 374.600 C 134.175 371.422,133.887 369.212,133.187 358.400 C 132.981 355.210,132.630 349.990,132.406 346.800 C 131.815 338.352,131.222 329.756,130.805 323.600 C 130.604 320.630,130.242 315.500,130.002 312.200 C 129.761 308.900,129.395 303.680,129.189 300.600 C 128.983 297.520,128.631 292.390,128.407 289.200 C 127.849 281.236,127.241 272.437,126.805 266.000 C 126.604 263.030,126.242 257.900,126.002 254.600 C 125.761 251.300,125.395 246.080,125.189 243.000 C 124.983 239.920,124.631 234.790,124.407 231.600 C 123.373 216.856,123.003 211.423,122.022 196.640 C 121.775 192.922,121.479 189.727,121.363 189.540 C 121.247 189.353,156.823 189.200,200.419 189.200 C 274.386 189.200,279.668 189.245,279.429 189.870 M112.493 194.000 C 112.493 194.770,112.575 195.085,112.676 194.700 C 112.776 194.315,112.776 193.685,112.676 193.300 C 112.575 192.915,112.493 193.230,112.493 194.000 M113.293 205.200 C 113.293 205.970,113.375 206.285,113.476 205.900 C 113.576 205.515,113.576 204.885,113.476 204.500 C 113.375 204.115,113.293 204.430,113.293 205.200 M287.293 205.600 C 287.293 206.370,287.375 206.685,287.476 206.300 C 287.576 205.915,287.576 205.285,287.476 204.900 C 287.375 204.515,287.293 204.830,287.293 205.600 M114.093 216.400 C 114.093 217.170,114.175 217.485,114.276 217.100 C 114.376 216.715,114.376 216.085,114.276 215.700 C 114.175 215.315,114.093 215.630,114.093 216.400 M286.493 216.800 C 286.493 217.570,286.575 217.885,286.676 217.500 C 286.776 217.115,286.776 216.485,286.676 216.100 C 286.575 215.715,286.493 216.030,286.493 216.800 M285.693 227.600 C 285.693 228.370,285.775 228.685,285.876 228.300 C 285.976 227.915,285.976 227.285,285.876 226.900 C 285.775 226.515,285.693 226.830,285.693 227.600 M284.893 238.800 C 284.893 239.570,284.975 239.885,285.076 239.500 C 285.176 239.115,285.176 238.485,285.076 238.100 C 284.975 237.715,284.893 238.030,284.893 238.800 M116.493 249.600 C 116.493 250.370,116.575 250.685,116.676 250.300 C 116.776 249.915,116.776 249.285,116.676 248.900 C 116.575 248.515,116.493 248.830,116.493 249.600 M284.093 250.000 C 284.093 250.770,284.175 251.085,284.276 250.700 C 284.376 250.315,284.376 249.685,284.276 249.300 C 284.175 248.915,284.093 249.230,284.093 250.000 M117.293 260.800 C 117.293 261.570,117.375 261.885,117.476 261.500 C 117.576 261.115,117.576 260.485,117.476 260.100 C 117.375 259.715,117.293 260.030,117.293 260.800 M283.293 261.200 C 283.293 261.970,283.375 262.285,283.476 261.900 C 283.576 261.515,283.576 260.885,283.476 260.500 C 283.375 260.115,283.293 260.430,283.293 261.200 M118.093 271.600 C 118.093 272.370,118.175 272.685,118.276 272.300 C 118.376 271.915,118.376 271.285,118.276 270.900 C 118.175 270.515,118.093 270.830,118.093 271.600 M118.893 282.800 C 118.893 283.570,118.975 283.885,119.076 283.500 C 119.176 283.115,119.176 282.485,119.076 282.100 C 118.975 281.715,118.893 282.030,118.893 282.800 M178.200 282.755 C 160.397 287.930,161.328 311.765,179.560 317.567 C 185.582 319.484,196.051 314.574,199.231 308.340 C 206.562 293.969,193.652 278.263,178.200 282.755 M190.800 284.307 C 204.479 290.861,204.021 308.843,190.000 315.710 C 176.419 322.362,160.895 306.203,167.536 292.327 C 171.467 284.113,182.475 280.318,190.800 284.307 M119.693 294.000 C 119.693 294.770,119.775 295.085,119.876 294.700 C 119.976 294.315,119.976 293.685,119.876 293.300 C 119.775 292.915,119.693 293.230,119.693 294.000 M280.893 294.400 C 280.893 295.170,280.975 295.485,281.076 295.100 C 281.176 294.715,281.176 294.085,281.076 293.700 C 280.975 293.315,280.893 293.630,280.893 294.400 M120.493 305.200 C 120.493 305.970,120.575 306.285,120.676 305.900 C 120.776 305.515,120.776 304.885,120.676 304.500 C 120.575 304.115,120.493 304.430,120.493 305.200 M280.093 305.600 C 280.093 306.370,280.175 306.685,280.276 306.300 C 280.376 305.915,280.376 305.285,280.276 304.900 C 280.175 304.515,280.093 304.830,280.093 305.600 M279.293 316.400 C 279.293 317.170,279.375 317.485,279.476 317.100 C 279.576 316.715,279.576 316.085,279.476 315.700 C 279.375 315.315,279.293 315.630,279.293 316.400 M229.800 318.493 C 211.517 324.704,213.300 349.745,232.300 353.602 C 243.127 355.800,255.416 343.159,252.645 332.674 C 249.866 322.158,238.953 315.383,229.800 318.493 M238.966 318.974 C 249.052 321.601,255.082 333.339,250.853 342.115 C 243.408 357.565,222.154 356.190,218.170 340.000 C 215.051 327.327,226.520 315.732,238.966 318.974 M278.493 327.600 C 278.493 328.370,278.575 328.685,278.676 328.300 C 278.776 327.915,278.776 327.285,278.676 326.900 C 278.575 326.515,278.493 326.830,278.493 327.600 M122.893 338.400 C 122.893 339.170,122.975 339.485,123.076 339.100 C 123.176 338.715,123.176 338.085,123.076 337.700 C 122.975 337.315,122.893 337.630,122.893 338.400 M277.693 338.800 C 277.693 339.570,277.775 339.885,277.876 339.500 C 277.976 339.115,277.976 338.485,277.876 338.100 C 277.775 337.715,277.693 338.030,277.693 338.800 M165.828 341.259 C 152.660 345.709,149.419 363.141,160.095 372.095 C 169.052 379.607,182.341 376.910,187.468 366.540 C 194.682 351.950,181.109 336.094,165.828 341.259 M174.523 341.242 C 181.303 342.284,185.503 346.104,188.394 353.859 C 192.295 364.324,182.196 376.331,170.216 375.472 C 150.305 374.044,148.607 345.326,168.200 341.364 C 171.343 340.728,171.197 340.731,174.523 341.242 M123.693 349.600 C 123.693 350.370,123.775 350.685,123.876 350.300 C 123.976 349.915,123.976 349.285,123.876 348.900 C 123.775 348.515,123.693 348.830,123.693 349.600 M276.893 350.000 C 276.893 350.770,276.975 351.085,277.076 350.700 C 277.176 350.315,277.176 349.685,277.076 349.300 C 276.975 348.915,276.893 349.230,276.893 350.000 M124.493 360.400 C 124.493 361.170,124.575 361.485,124.676 361.100 C 124.776 360.715,124.776 360.085,124.676 359.700 C 124.575 359.315,124.493 359.630,124.493 360.400 " stroke="none" fill="#a48a6c" fill-rule="evenodd"></path></g></svg>